<svg width="128" height="128" viewBox="0 0 128 128" xmlns="http://www.w3.org/2000/svg">
  <g>
    <path d="M32 18H74L96 40V104C96 109 92 112 87 112H41C36 112 32 109 32 104V18Z" fill="#EAF2FF" stroke="#2D3436" stroke-width="4"></path>
    <path d="M74 18V34C74 38 78 40 82 40H96" fill="#C8D6E5"></path>
    <line x1="46" y1="54" x2="82" y2="54" stroke="#74B9FF" stroke-width="4" stroke-linecap="round"></line>
    <line x1="46" y1="64" x2="78" y2="64" stroke="#74B9FF" stroke-width="4" stroke-linecap="round"></line>
    <line x1="46" y1="74" x2="70" y2="74" stroke="#74B9FF" stroke-width="4" stroke-linecap="round"></line>
    <path d="M48 44L58 40" stroke="#111" stroke-width="4" stroke-linecap="round"></path>
    <path d="M80 44L70 40" stroke="#111" stroke-width="4" stroke-linecap="round"></path>
    <circle cx="56" cy="50" r="3.5" fill="#111"></circle>
    <circle cx="72" cy="50" r="3.5" fill="#111"></circle>
    <path d="M54 90Q64 82 74 90" stroke="#E74C3C" stroke-width="4" stroke-linecap="round" fill="none"></path>
    <rect x="24" y="92" width="10" height="16" rx="4" fill="#FF7675"></rect>
    <rect x="94" y="92" width="10" height="16" rx="4" fill="#FF7675"></rect>
  </g>
</svg>